<svg preserveAspectRatio="none" overflow="visible" style="display: block;" width="30.9265" height="32.0566" viewBox="0 0 30.9265 32.0566" fill="none" xmlns="http://www.w3.org/2000/svg">
<g id="Remind">
<path id="Vector" d="M30.3948 18.7728H6.827C6.98843 20.9251 7.98387 22.6739 9.81334 24.0191C11.6428 25.3643 13.7682 26.0369 16.1896 26.0369C20.0099 26.0369 22.8617 24.8531 24.745 22.4856L28.377 26.4404C25.1486 29.8303 20.9247 31.5253 15.7053 31.5253C11.4007 31.5253 7.79554 30.0994 4.88992 27.2476C1.9843 24.3957 0.531488 20.6292 0.531488 15.9479C0.531488 11.3742 2.0112 7.6615 4.97064 4.80969C7.93007 1.95787 11.5083 0.531969 15.7053 0.531969C19.9023 0.531969 23.3998 1.79645 26.1978 4.32542C28.9958 6.85439 30.3948 10.2174 30.3948 14.4144V18.7728ZM24.0993 13.7687C24.0993 11.3473 23.3191 9.43716 21.7587 8.03816C20.2521 6.63915 18.2881 5.93965 15.8667 5.93965C13.4454 5.93965 11.32 6.66606 9.49049 8.11887C7.71483 9.57168 6.827 11.455 6.827 13.7687H24.0993Z" fill="black"/>
<path id="Vector (Stroke)" d="M30.3949 18.7725V14.414C30.3949 10.217 28.9959 6.85396 26.1979 4.325C23.3999 1.79606 19.9023 0.531572 15.7053 0.531572C11.5083 0.531599 7.93021 1.95755 4.97081 4.80933L4.83324 4.94352C1.96552 7.77726 0.531623 11.4452 0.531605 15.9474C0.531605 20.6287 1.98446 24.3954 4.89008 27.2472C7.75029 30.0545 11.2883 31.4801 15.5041 31.524L15.7053 31.525C20.9247 31.525 25.1487 29.8299 28.3771 26.44L24.7451 22.4852C22.8619 24.8527 20.01 26.0364 16.1896 26.0364V25.5048C19.8946 25.5048 22.5725 24.3625 24.3291 22.1542L24.7161 21.6678L29.1049 26.4468L28.762 26.8065C25.4212 30.3144 21.0517 32.0566 15.7053 32.0566C11.2703 32.0565 7.52874 30.5818 4.51762 27.6265C1.49472 24.6595 3.29936e-05 20.7481 3.29936e-05 15.9474C5.05535e-05 11.2474 1.52634 7.39028 4.60198 4.42648C7.66275 1.47704 11.374 2.65067e-05 15.7053 0C20.018 0 23.6473 1.30328 26.5543 3.93073C29.477 6.57247 30.9265 10.0855 30.9265 14.414V19.304H7.42284C7.6918 21.0322 8.5836 22.4544 10.1285 23.5903C11.8604 24.8638 13.8736 25.5048 16.1896 25.5048V26.0364C13.7683 26.0364 11.6428 25.3638 9.81336 24.0186C7.98396 22.6734 6.98858 20.9247 6.82716 18.7725H30.3949ZM15.8667 5.93918C18.288 5.93918 20.2521 6.63875 21.7587 8.0377C23.3191 9.43668 24.0993 11.3469 24.0994 13.7682L6.82716 13.7682C6.82718 11.4545 7.7151 9.57121 9.49073 8.11842C11.3201 6.66568 13.4455 5.9392 15.8667 5.93918ZM15.8667 6.47075C13.5608 6.47077 11.5529 7.1595 9.82115 8.53475C8.31196 9.77191 7.50155 11.3282 7.37638 13.2366L23.5538 13.2366C23.4477 11.1988 22.7215 9.61481 21.4039 8.43352L21.3971 8.42729C20.006 7.13551 18.1793 6.47075 15.8667 6.47075Z" fill="black"/>
</g>
</svg>
